<?xml version="1.0" ?><svg id="Layer_1" style="enable-background:new 0 0 128 128;" version="1.1" viewBox="0 0 128 128" xml:space="preserve" xmlns="http://www.w3.org/2000/svg" xmlns:xlink="http://www.w3.org/1999/xlink"><style type="text/css">
	.st0{fill:#0A0A0A;}
</style><g id="Layer_1_1_"/><g id="Layer_1_2_"/><g><path class="st0" d="M63.9,20.1C58.1,14.2,50.3,11,42,11s-16.1,3.2-21.9,9.1C14.2,25.9,11,33.7,11,42s3.2,16.1,9.1,21.9   C25.9,69.8,33.7,73,42,73s16.1-3.2,21.9-9.1C76,51.8,76,32.2,63.9,20.1z M62.5,62.5C57,68,49.7,71,42,71s-15-3-20.5-8.5   S13,49.7,13,42s3-15,8.5-20.5S34.3,13,42,13s15,3,20.5,8.5S71,34.3,71,42S68,57,62.5,62.5z"/><path class="st0" d="M125,116.7L74.9,66.4C86.8,50.4,85.5,27.6,71,13C55-3,29-3,13,13s-16,42,0,58c7.7,7.7,18,12,29,12   c8.9,0,17.4-2.8,24.4-8.1l50.2,50.2c0.6,0.5,1.3,0.8,2,0.8c0.8,0,1.5-0.3,2.1-0.8l4.2-4.2C126.2,119.7,126.2,117.9,125,116.7z    M14.4,69.6c-15.2-15.2-15.2-39.9,0-55.2c15.2-15.2,39.9-15.2,55.2,0C76.9,21.8,81,31.6,81,42s-4.1,20.2-11.4,27.6S52.4,81,42,81   S21.8,76.9,14.4,69.6z M123.6,119.5l-4.2,4.2c-0.4,0.4-1.1,0.4-1.4,0l-50-50c1-0.8,2-1.7,3-2.7s1.8-1.9,2.7-3l49.9,50.1   C124,118.5,124,119.1,123.6,119.5z"/></g></svg>